<svg xmlns="http://www.w3.org/2000/svg" xmlns:xlink="http://www.w3.org/1999/xlink" width="36.493" height="36.764" viewBox="0 0 36.493 36.764">
  <defs>
    <linearGradient id="linear-gradient" x1="0.5" x2="0.5" y2="1.057" gradientUnits="objectBoundingBox">
      <stop offset="0" stop-color="#252757"/>
      <stop offset="0.734" stop-color="#252757"/>
      <stop offset="0.911" stop-color="#252757"/>
      <stop offset="1" stop-color="#e8e8e8"/>
    </linearGradient>
  </defs>
  <g id="Group_988" data-name="Group 988" transform="translate(-1709.351 -72)">
    <path id="Path_762" data-name="Path 762" d="M7.3,0h21.9a7.326,7.326,0,0,1,7.3,7.353V29.411a7.326,7.326,0,0,1-7.3,7.353H7.3A7.326,7.326,0,0,1,0,29.411V7.353A7.326,7.326,0,0,1,7.3,0Z" transform="translate(1709.351 72)" opacity="0.864" fill="url(#linear-gradient)"/>
    <g id="Group_446" data-name="Group 446" transform="translate(1717.954 81.092)">
      <path id="Path_507" data-name="Path 507" d="M1202.783,664.511a5.2,5.2,0,0,1,.025.72v18.7a.36.36,0,1,1-.05,0v-18.7a5.2,5.2,0,0,1,.025-.72Z" transform="translate(-1202.758 -663.812)" fill="none" stroke="#fff" stroke-width="2" fill-rule="evenodd"/>
      <path id="Path_508" data-name="Path 508" d="M1250.628,684.726c1.761-1.173,2.869-1.915,4.952-1.915a4.809,4.809,0,0,1,2.706,1.014l.059.04a3.189,3.189,0,0,0,1.761.752,3.143,3.143,0,0,0,1.064-.228c.361-.139.722-.287,1.073-.45l.327-.143a9.277,9.277,0,0,1,3.874-.984.906.906,0,0,1,.905.905V694.57a.906.906,0,0,1-.905.905,7.575,7.575,0,0,0-3.137.826l-.287.124c-.4.183-.816.371-1.227.519a4.994,4.994,0,0,1-1.682.336,4.809,4.809,0,0,1-2.706-1.014l-.059-.04a3.188,3.188,0,0,0-1.761-.752c-1.509,0-2.2.445-4.022,1.657a.9.9,0,0,1-1.252-.252l-.153-.5V685.522a.906.906,0,0,1,.406-.752l.064-.044Z" transform="translate(-1247.57 -682.811)" fill="none" stroke="#fff" stroke-width="2" fill-rule="evenodd"/>
    </g>
  </g>
</svg>
